<svg width="167" height="150" viewBox="0 0 167 150" fill="none" xmlns="http://www.w3.org/2000/svg">
<path d="M59.0736 23.0418C36.4239 4.91273 -15.6724 41.2025 4.6013 82.2824C24.8751 123.362 37.4594 91.9887 77.8814 128.042C99.7242 147.523 122.562 158.616 156.706 98.9503C178.587 60.7128 159.409 -4.24623 133.285 0.689754C107.162 5.62574 107.2 61.5621 59.0736 23.0418Z" fill="#F1F2F2"/>
<g opacity="0.61">
<g opacity="0.61">
<g opacity="0.61">
<path opacity="0.61" d="M114.507 89.3876L118.395 88.371C119.195 88.1608 120.016 88.6446 120.226 89.4452L121.013 92.452C122.121 92.4635 123.225 92.6161 124.299 92.907L125.871 90.2257C126.289 89.5115 127.21 89.2696 127.925 89.69L131.392 91.7204C132.106 92.138 132.348 93.0596 131.928 93.7739L130.358 96.4552C131.136 97.25 131.81 98.14 132.363 99.099L135.369 98.3128C136.17 98.1025 136.994 98.5864 137.201 99.387L138.218 103.275C138.428 104.076 137.944 104.896 137.144 105.107L134.137 105.893C134.125 107.002 133.973 108.105 133.682 109.179L136.363 110.751C137.077 111.169 137.319 112.091 136.899 112.805L134.868 116.272C134.451 116.987 133.529 117.229 132.815 116.808L130.134 115.239C129.339 116.016 128.449 116.69 127.49 117.243L128.276 120.25C128.486 121.05 128.002 121.874 127.202 122.081L123.314 123.098C122.513 123.308 121.692 122.824 121.482 122.024L120.696 119.017C119.587 119.006 118.484 118.853 117.41 118.562L115.84 121.243C115.423 121.958 114.501 122.199 113.787 121.779L110.319 119.749C109.605 119.331 109.363 118.409 109.784 117.695L111.356 115.014C110.578 114.219 109.905 113.332 109.352 112.37L106.348 113.153C105.547 113.364 104.723 112.88 104.516 112.079L103.499 108.191C103.289 107.391 103.773 106.57 104.574 106.359L107.577 105.576C107.592 104.467 107.745 103.364 108.033 102.29L105.351 100.718C104.637 100.3 104.395 99.3784 104.816 98.6641L106.846 95.1966C107.266 94.4824 108.185 94.2433 108.899 94.6609L111.581 96.2305C112.376 95.4529 113.265 94.779 114.225 94.226L113.438 91.2193C113.225 90.4187 113.706 89.5979 114.507 89.3876ZM124.621 93.7105L124.365 93.6356C123.187 93.2929 121.972 93.123 120.751 93.1345L120.486 93.1374L119.567 89.618C119.452 89.1803 119.005 88.9182 118.568 89.0334L114.68 90.05C114.242 90.1652 113.98 90.6116 114.095 91.0494L115.014 94.5688L114.78 94.6955C113.712 95.283 112.733 96.0232 111.872 96.8987L111.684 97.0888L108.545 95.2513C108.156 95.0238 107.652 95.1534 107.425 95.5451L105.394 99.0126C105.167 99.4014 105.297 99.9054 105.688 100.133L108.827 101.973L108.753 102.23C108.41 103.407 108.24 104.623 108.251 105.844L108.254 106.109L104.738 107.028C104.3 107.143 104.038 107.589 104.153 108.027L105.17 111.915C105.285 112.353 105.731 112.615 106.169 112.5L109.686 111.581L109.812 111.814C110.4 112.886 111.14 113.862 112.016 114.72L112.206 114.907L110.365 118.047C110.138 118.435 110.267 118.939 110.659 119.167L114.127 121.197C114.515 121.425 115.017 121.295 115.247 120.903L117.084 117.764L117.341 117.839C118.519 118.182 119.734 118.352 120.955 118.34L121.22 118.337L122.139 121.857C122.254 122.295 122.7 122.557 123.138 122.441L127.026 121.425C127.464 121.31 127.726 120.863 127.611 120.425L126.692 116.906L126.925 116.779C127.994 116.192 128.973 115.452 129.831 114.576L130.018 114.386L133.158 116.223C133.546 116.451 134.05 116.321 134.278 115.93L136.308 112.462C136.536 112.073 136.406 111.569 136.015 111.342L132.875 109.502L132.95 109.245C133.293 108.067 133.463 106.852 133.451 105.631L133.449 105.366L136.968 104.447C137.406 104.332 137.668 103.886 137.553 103.448L136.536 99.5598C136.421 99.122 135.974 98.86 135.537 98.9752L132.017 99.8939L131.888 99.6606C131.3 98.5921 130.56 97.6129 129.684 96.7547L129.494 96.5675L131.332 93.4283C131.559 93.0395 131.43 92.5355 131.038 92.308L127.57 90.2776C127.182 90.05 126.678 90.1796 126.45 90.5713L124.621 93.7105ZM118.452 96.5473C123.518 95.2254 128.717 98.2696 130.039 103.335C131.361 108.401 128.316 113.6 123.25 114.922C118.185 116.244 112.986 113.199 111.661 108.134C110.342 103.068 113.386 97.8692 118.452 96.5473ZM123.081 114.262C127.784 113.035 130.609 108.211 129.382 103.508C128.155 98.8052 123.331 95.98 118.628 97.2068C113.925 98.4337 111.1 103.258 112.327 107.961C113.553 112.664 118.377 115.489 123.081 114.262Z" fill="white"/>
</g>
</g>
<g opacity="0.61">
<g opacity="0.61">
<path opacity="0.61" d="M39.3448 60.0519L43.2328 59.0353C44.0335 58.825 44.8543 59.3089 45.0645 60.1095L45.8479 63.1162C46.9567 63.1278 48.0597 63.2804 49.1339 63.5713L50.7064 60.89C51.124 60.1758 52.0456 59.9338 52.7599 60.3543L56.2274 62.3847C56.9416 62.8023 57.1835 63.7239 56.7631 64.4382L55.1935 67.1194C55.9711 67.9143 56.645 68.8042 57.1979 69.7633L60.2047 68.977C61.0053 68.7668 61.829 69.2506 62.0363 70.0513L63.053 73.9393C63.2632 74.7399 62.7794 75.5607 61.9787 75.771L58.972 76.5572C58.9605 77.666 58.8079 78.769 58.517 79.8433L61.1983 81.4158C61.9125 81.8334 62.1544 82.755 61.7339 83.4692L59.7035 86.9367C59.2859 87.651 58.3643 87.8929 57.6501 87.4724L54.9688 85.9028C54.1739 86.6804 53.284 87.3543 52.325 87.9073L53.1112 90.914C53.3215 91.7146 52.8376 92.5383 52.037 92.7457L48.149 93.7623C47.3483 93.9726 46.5275 93.4887 46.3173 92.6881L45.5311 89.6814C44.4223 89.6698 43.3192 89.5172 42.245 89.2263L40.6754 91.9076C40.2578 92.6218 39.3362 92.8638 38.6219 92.4433L35.1544 90.4129C34.4402 89.9953 34.1983 89.0737 34.6187 88.3594L36.1912 85.6782C35.4136 84.8833 34.7397 83.9962 34.1867 83.0343L31.1829 83.8177C30.3823 84.0279 29.5586 83.5441 29.3512 82.7434L28.3346 78.8554C28.1243 78.0548 28.6082 77.234 29.4088 77.0238L32.4127 76.2404C32.4271 75.1316 32.5797 74.0286 32.8677 72.9543L30.1864 71.3818C29.4722 70.9642 29.2303 70.0426 29.6507 69.3284L31.6811 65.8609C32.1016 65.1466 33.0203 64.9076 33.7346 65.3252L36.4159 66.8948C37.2107 66.1172 38.1007 65.4433 39.0597 64.8903L38.2735 61.8836C38.0632 61.083 38.5442 60.2593 39.3448 60.0519ZM49.4594 64.3719L49.2031 64.297C48.0251 63.9543 46.8098 63.7844 45.5887 63.7959L45.3237 63.7988L44.405 60.2794C44.2898 59.8417 43.8434 59.5796 43.4056 59.6948L39.5176 60.7114C39.0799 60.8266 38.8178 61.273 38.933 61.7108L39.8517 65.2302L39.6184 65.3569C38.5499 65.9444 37.5707 66.6846 36.7096 67.5601L36.5224 67.7502L33.3832 65.9127C32.9944 65.6852 32.4904 65.8148 32.2629 66.2065L30.2325 69.674C30.005 70.0628 30.1346 70.5668 30.5263 70.7943L33.6655 72.6346L33.5906 72.891C33.2479 74.0689 33.0779 75.2842 33.0895 76.5054L33.0923 76.7703L29.5759 77.689C29.1381 77.8042 28.876 78.2506 28.9912 78.6884L30.0079 82.5764C30.1231 83.0142 30.5695 83.2762 31.0072 83.161L34.5237 82.2423L34.6504 82.4756C35.2379 83.547 35.9781 84.5233 36.8536 85.3815L37.0437 85.5687L35.2034 88.7079C34.9759 89.0967 35.1055 89.6007 35.4971 89.8282L38.9647 91.8586C39.3535 92.0862 39.8546 91.9566 40.085 91.5649L41.9224 88.4257L42.1787 88.5006C43.3567 88.8433 44.572 89.0132 45.7931 89.0017L46.0581 88.9988L46.9768 92.5182C47.092 92.9559 47.5384 93.218 47.9762 93.1028L51.8642 92.0862C52.3019 91.971 52.564 91.5246 52.4488 91.0868L51.5301 87.5674L51.7634 87.4407C52.8319 86.8532 53.8111 86.113 54.6693 85.2375L54.8565 85.0474L57.9957 86.8849C58.3845 87.1124 58.8885 86.9828 59.116 86.5911L61.1464 83.1236C61.3739 82.7348 61.2443 82.2308 60.8527 82.0033L57.7135 80.163L57.7883 79.9066C58.1311 78.7287 58.301 77.5134 58.2895 76.2922L58.2866 76.0273L61.8059 75.1086C62.2437 74.9934 62.5058 74.547 62.3906 74.1092L61.3739 70.2212C61.2587 69.7834 60.8123 69.5214 60.3746 69.6366L56.8552 70.5553L56.7285 70.322C56.141 69.2535 55.4008 68.2743 54.5253 67.4161L54.3352 67.2289L56.1727 64.0897C56.4002 63.7009 56.2706 63.1969 55.8789 62.9694L52.4114 60.939C52.0226 60.7114 51.5186 60.841 51.2911 61.2327L49.4594 64.3719ZM43.2904 67.2087C48.3563 65.8868 53.5547 68.931 54.8767 73.9969C56.1986 79.0628 53.1544 84.2612 48.0885 85.5831C43.0226 86.905 37.8242 83.8609 36.4994 78.795C35.1746 73.729 38.2245 68.5306 43.2904 67.2087ZM47.9157 84.9236C52.6187 83.6967 55.444 78.8727 54.2171 74.1697C52.9903 69.4666 48.1663 66.6414 43.4632 67.8682C38.7602 69.0951 35.9349 73.9191 37.1618 78.6222C38.3915 83.3252 43.2155 86.1534 47.9157 84.9236Z" fill="white"/>
</g>
</g>
<g opacity="0.61">
<path opacity="0.61" d="M117.499 78.5098L119.357 78.9678C119.36 79.6906 119.472 80.3991 119.68 81.073L118.041 82.0637C117.73 82.2509 117.629 82.657 117.819 82.9681L119.003 84.9207C119.19 85.2317 119.596 85.3325 119.907 85.1425L121.546 84.1517C122.047 84.6471 122.623 85.0733 123.259 85.4132L122.802 87.2708C122.715 87.625 122.931 87.9821 123.285 88.0685L125.503 88.6129C125.857 88.6993 126.214 88.4833 126.301 88.129L126.759 86.2714C127.482 86.2685 128.19 86.1562 128.864 85.9489L129.855 87.5876C130.042 87.8986 130.448 87.9994 130.759 87.8093L132.712 86.6285C133.023 86.4413 133.123 86.0353 132.933 85.7242L131.943 84.0855C132.438 83.5844 132.864 83.0084 133.204 82.369L135.062 82.827C135.416 82.9134 135.773 82.6973 135.859 82.3431L136.404 80.1255C136.49 79.7713 136.274 79.4142 135.92 79.3278L134.062 78.8698C134.059 78.147 133.947 77.4385 133.74 76.7646L135.379 75.7738C135.69 75.5866 135.79 75.1806 135.6 74.8695L134.417 72.9169C134.229 72.6058 133.823 72.505 133.512 72.6951L131.874 73.6858C131.372 73.1905 130.796 72.7642 130.16 72.4244L130.618 70.5668C130.704 70.2126 130.488 69.8554 130.134 69.769L127.916 69.2247C127.562 69.1383 127.205 69.3543 127.119 69.7086L126.661 71.5662C125.938 71.569 125.229 71.6814 124.555 71.8887L123.565 70.25C123.378 69.939 122.971 69.8382 122.66 70.0282L120.708 71.209C120.397 71.3962 120.296 71.8023 120.486 72.1134L121.477 73.7521C120.981 74.2532 120.555 74.8292 120.215 75.4686L118.358 75.0106C118.003 74.9242 117.646 75.1402 117.56 75.4945L117.016 77.7121C116.929 78.0663 117.145 78.4234 117.499 78.5098ZM127.948 73.8702C130.736 74.5556 132.444 77.3722 131.758 80.1601C131.073 82.9479 128.256 84.6558 125.468 83.9703C122.681 83.2849 120.973 80.4682 121.658 77.6804C122.344 74.8897 125.16 73.1847 127.948 73.8702Z" fill="white"/>
</g>
</g>
<path d="M104.116 112.756L73.0093 126.165C70.4144 127.285 67.4019 126.087 66.2816 123.49L37.6947 57.1718C36.5744 54.5769 37.7725 51.5644 40.3702 50.4441L71.4771 37.0348C74.072 35.9145 77.0845 37.1126 78.2048 39.7103L106.792 106.025C107.909 108.623 106.711 111.635 104.116 112.756Z" fill="#292930"/>
<path d="M100.248 110.368L73.7552 121.787C71.1603 122.908 68.1478 121.71 67.0275 119.112L40.903 58.4994C39.7827 55.9045 40.9808 52.892 43.5785 51.7717L70.0717 40.3525C72.6665 39.2322 75.679 40.4303 76.7993 43.028L102.927 103.643C104.041 106.238 102.843 109.248 100.248 110.368Z" fill="white"/>
<path d="M99.5053 108.643L73.0121 120.062C70.4173 121.183 67.4538 120.1 66.3968 117.649L41.7152 60.3888C40.6582 57.9379 41.9053 55.0406 44.5001 53.9232L70.9933 42.504C73.5881 41.3837 76.5517 42.4666 77.6086 44.9174L102.29 102.178C103.35 104.628 102.1 107.526 99.5053 108.643Z" fill="#C0E4FF"/>
<path d="M66.656 46.1413L50.9283 52.9208C49.9232 53.3557 48.7568 52.8892 48.3219 51.884L47.4262 49.9227L66.7913 41.4555L67.6928 43.5349C68.1248 44.5429 67.6611 45.7093 66.656 46.1413Z" fill="#292930"/>
<path d="M52.5556 50.8098C52.1581 50.8098 51.778 50.5766 51.6109 50.1878C51.3863 49.6665 51.6282 49.0617 52.1466 48.8371C52.6679 48.6124 53.2727 48.8543 53.4973 49.3756C53.722 49.8969 53.48 50.5017 52.9588 50.7263C52.8292 50.7839 52.6909 50.8098 52.5556 50.8098ZM52.5527 49.0415C52.4548 49.0415 52.3568 49.0617 52.2618 49.102C51.8874 49.2633 51.7146 49.701 51.8759 50.0754C52.0372 50.4498 52.4749 50.6226 52.8493 50.4614C53.2237 50.3001 53.3965 49.8623 53.2352 49.4879C53.1143 49.2115 52.8407 49.0415 52.5527 49.0415Z" fill="white"/>
<path d="M55.6458 49.2057C55.3348 49.2057 55.0353 49.0242 54.9057 48.719C54.8221 48.5231 54.8193 48.3042 54.897 48.1026C54.9777 47.901 55.1303 47.7455 55.3261 47.6591L62.8574 44.4134C63.0532 44.3298 63.2721 44.327 63.4737 44.4047C63.6753 44.4854 63.8308 44.638 63.9172 44.8338C64.0929 45.2428 63.9028 45.718 63.4967 45.8937L55.9655 49.1394C55.8618 49.1855 55.7524 49.2057 55.6458 49.2057ZM63.1742 44.6351C63.105 44.6351 63.0359 44.6495 62.9697 44.6783L55.4385 47.9241C55.1764 48.0364 55.0554 48.3417 55.1677 48.6038C55.2801 48.8658 55.5853 48.9868 55.8474 48.8745L63.3786 45.6287C63.6407 45.5164 63.7617 45.2111 63.6494 44.949C63.5946 44.8223 63.4938 44.7244 63.3642 44.6726C63.3038 44.6495 63.2375 44.6351 63.1742 44.6351Z" fill="white"/>
<path opacity="0.18" d="M78.3171 46.559L49.7447 79.0108L53.1776 86.9798L80.9523 52.6732L78.3171 46.559Z" fill="white"/>
<path opacity="0.1" d="M82.9251 57.3906L56.6365 95.1474L60.0723 103.114L85.6727 63.7641L82.9251 57.3906Z" fill="white"/>
<path d="M103.923 40.4663C106.074 33.5457 102.273 26.2121 95.4326 24.0863C88.5925 21.9605 81.304 25.8475 79.1532 32.7681C77.0024 39.6886 80.8037 47.0222 87.6438 49.148C94.4839 51.2738 101.772 47.3868 103.923 40.4663Z" fill="#3A93FB"/>
<path d="M103.238 38.8977C105.39 31.9779 101.59 24.6444 94.7504 22.5178C87.911 20.3913 80.6225 24.2771 78.4709 31.197C76.3194 38.1168 80.1196 45.4503 86.959 47.5769C93.7983 49.7034 101.087 45.8176 103.238 38.8977Z" fill="#3865A7"/>
<path opacity="0.93" d="M100.372 38.0079C102.025 32.6889 99.1037 27.0525 93.847 25.4186C88.5903 23.7847 82.9887 26.7721 81.3354 32.0911C79.6822 37.4101 82.6034 43.0465 87.8601 44.6804C93.1168 46.3143 98.7185 43.3269 100.372 38.0079Z" fill="white"/>
<path d="M91.0699 34.3536C90.8136 34.273 90.6725 34.0023 90.7531 33.7488L92.4984 28.1328C92.579 27.8765 92.8498 27.7354 93.1032 27.816C93.3595 27.8967 93.5006 28.1674 93.42 28.4208L91.6747 34.0368C91.5941 34.2903 91.3234 34.4314 91.0699 34.3536Z" fill="#9FBFFF"/>
<path d="M90.831 35.2119C90.9116 34.9556 91.1824 34.8145 91.4358 34.8951L95.7644 36.2401C96.0208 36.3207 96.1619 36.5914 96.0812 36.8449C96.0006 37.1012 95.7299 37.2423 95.4764 37.1617L91.1478 35.8167C90.8944 35.739 90.7532 35.4682 90.831 35.2119Z" fill="#9FBFFF"/>
<path d="M92.2388 35.4767C91.9969 36.2515 91.1819 36.6863 90.4187 36.4473C89.6526 36.2083 89.2293 35.3903 89.4683 34.6156C89.7073 33.8409 90.5253 33.406 91.2885 33.6451C92.0545 33.8812 92.4779 34.702 92.2388 35.4767Z" fill="#1B1B25"/>
<path d="M108.779 102.725L84.3623 94.2574C82.1102 93.477 80.915 91.0174 81.6983 88.7624L102.014 30.1745C102.794 27.9224 105.254 26.7272 107.509 27.5105L131.925 35.9777C134.178 36.7582 135.373 39.2177 134.589 41.4728L114.271 100.061C113.491 102.313 111.031 103.508 108.779 102.725Z" fill="#101011"/>
<path d="M108.373 101.581L85.3906 93.6123C83.2709 92.8779 82.1679 90.4962 82.9311 88.2987L102.769 31.0904C103.532 28.8901 105.87 27.7035 107.99 28.4379L130.972 36.4069C133.092 37.1413 134.195 39.523 133.432 41.7205L113.594 98.9288C112.831 101.129 110.493 102.319 108.373 101.581Z" fill="#282830"/>
<path d="M102.542 34.9327L84.9133 85.7751L113.645 95.7373L131.274 44.895L102.542 34.9327Z" fill="white"/>
<path opacity="0.89" d="M118.773 34.9842C118.715 34.9842 118.657 34.9756 118.603 34.9554C118.473 34.9093 118.367 34.8172 118.306 34.6904C118.246 34.5666 118.237 34.4255 118.283 34.293C118.329 34.1634 118.421 34.0568 118.548 33.9964C118.672 33.9359 118.813 33.9272 118.945 33.9733C119.078 34.0194 119.182 34.1116 119.242 34.2383C119.303 34.3621 119.311 34.5032 119.265 34.6357C119.219 34.7682 119.127 34.8719 119 34.9324C118.928 34.9669 118.85 34.9842 118.773 34.9842ZM118.773 34.2325C118.738 34.2325 118.704 34.2412 118.672 34.2556C118.617 34.2815 118.574 34.3304 118.554 34.388C118.534 34.4456 118.536 34.509 118.565 34.5637C118.591 34.6184 118.64 34.6616 118.698 34.6818C118.755 34.702 118.819 34.6991 118.873 34.6703C118.928 34.6444 118.971 34.5954 118.992 34.5378C119.012 34.4802 119.009 34.4168 118.98 34.3621C118.954 34.3074 118.905 34.2642 118.848 34.244C118.824 34.2383 118.799 34.2325 118.773 34.2325Z" fill="white"/>
<path opacity="0.89" d="M120.875 37.5762C120.832 37.5762 120.789 37.5704 120.746 37.5531L115.305 35.6667C115.101 35.5947 114.991 35.3701 115.063 35.1656C115.098 35.0648 115.17 34.987 115.265 34.941C115.36 34.8949 115.467 34.8891 115.564 34.9237L121.005 36.8101C121.106 36.8446 121.183 36.9166 121.229 37.0117C121.275 37.1067 121.281 37.2133 121.247 37.3141C121.192 37.4725 121.039 37.5762 120.875 37.5762ZM120.841 37.2824C120.895 37.3026 120.956 37.2709 120.976 37.2162C120.985 37.1902 120.985 37.1614 120.97 37.1355C120.959 37.1096 120.936 37.0894 120.91 37.0808L115.469 35.1944C115.443 35.1858 115.415 35.1858 115.389 35.2002C115.363 35.2117 115.343 35.2347 115.334 35.2606C115.314 35.3154 115.346 35.3758 115.4 35.396L120.841 37.2824Z" fill="white"/>
<g opacity="0.41">
<g opacity="0.41">
<g opacity="0.81">
<path opacity="0.81" d="M103.843 36.9321L87.3608 84.4657L113.055 93.3751L129.537 45.8415L103.843 36.9321Z" fill="#9FBFFF"/>
</g>
</g>
</g>
<path d="M100.804 96.7428C100.675 96.7428 100.545 96.7198 100.418 96.6766L94.6726 94.6836C94.0592 94.4705 93.7337 93.7994 93.9468 93.186L93.9814 93.0852C94.0851 92.7886 94.2982 92.5495 94.5804 92.4113C94.8627 92.273 95.1824 92.2558 95.479 92.3594L101.225 94.3524C101.838 94.5655 102.163 95.2366 101.95 95.85L101.916 95.9508C101.812 96.2474 101.599 96.4865 101.317 96.6247C101.155 96.7025 100.98 96.7428 100.804 96.7428ZM94.2176 93.281C94.0563 93.7447 94.304 94.2516 94.7676 94.4129L100.513 96.4058C100.977 96.5671 101.484 96.3194 101.645 95.8558L101.68 95.755C101.841 95.2913 101.593 94.7844 101.13 94.6231L95.384 92.6302C95.1593 92.5524 94.9174 92.5668 94.7043 92.6705C94.4912 92.7742 94.3299 92.9556 94.2521 93.1802L94.2176 93.281Z" fill="white"/>
<path opacity="0.18" d="M100.911 39.6441L125.546 61.4226L122.635 69.8207L98.7594 45.4185L100.911 39.6441Z" fill="white"/>
<path opacity="0.18" d="M97.2072 50.2452L121.843 72.0238L118.931 80.4219L96.4584 52.2584L97.2072 50.2452Z" fill="white"/>
<path d="M57.6416 38.7535L50.1593 39.4562C48.5696 39.606 47.1468 38.4223 46.9971 36.8268L46.3548 30.0012C46.2051 28.4057 47.383 26.9772 48.9728 26.8274L56.455 26.1247C58.0448 25.9749 59.4675 27.1586 59.6172 28.7541L60.2595 35.5797C60.4092 37.1752 59.2313 38.6037 57.6416 38.7535Z" fill="#AA0D0D"/>
<path d="M57.7684 37.7145L50.865 38.3625C49.3991 38.5008 48.0858 37.4121 47.9476 35.9462L47.3572 29.6707C47.219 28.2048 48.3076 26.8915 49.7735 26.7533L56.6769 26.1053C58.1428 25.967 59.4561 27.0557 59.5943 28.5216L60.1847 34.7971C60.323 36.263 59.2343 37.5763 57.7684 37.7145Z" fill="#FE5F5F"/>
<path d="M51.4669 35.6697C51.441 35.6697 51.4237 35.6697 51.4151 35.6668L51.3373 35.6351L51.3258 35.5516C51.2077 34.5321 51.6599 33.5327 52.4864 32.9452C51.9623 32.6025 51.6138 32.0466 51.5389 31.4159C51.4064 30.2553 52.2387 29.2041 53.3994 29.0716C53.961 29.0054 54.5139 29.1638 54.9575 29.5151C55.401 29.8665 55.6803 30.3705 55.7437 30.9321C55.8157 31.5628 55.6055 32.182 55.1706 32.637C56.1095 33.023 56.7776 33.8898 56.8957 34.9094L56.9043 34.9929L56.8381 35.0447C56.7315 35.1225 52.0227 35.6697 51.4669 35.6697ZM53.6528 29.3394C53.5808 29.3394 53.5117 29.3423 53.4397 29.351C52.4375 29.4662 51.7175 30.3762 51.8327 31.3785C51.9047 31.9919 52.2762 32.5247 52.832 32.8041L53.0682 32.9222L52.8407 33.0575C52.0199 33.5414 51.5447 34.4428 51.6051 35.3846C52.3194 35.3298 55.8935 34.918 56.5991 34.8086C56.4435 33.8783 55.7725 33.1094 54.8653 32.8242L54.6119 32.7465L54.8163 32.5766C55.2944 32.1791 55.5363 31.5743 55.4643 30.9609C55.4096 30.4742 55.1677 30.0422 54.7847 29.7369C54.4592 29.4777 54.0618 29.3394 53.6528 29.3394Z" fill="white"/>
<path d="M105.625 115.017L89.1427 109.824C88.7625 109.703 88.3565 109.916 88.2355 110.296L87.6768 112.068L87.4032 112.934L84.7161 121.459L84.4829 122.199L84.4483 122.312C84.3273 122.692 84.5405 123.098 84.9206 123.219L101.403 128.412C101.783 128.532 102.189 128.319 102.31 127.939L102.356 127.798L102.566 127.133L105.475 117.905L105.746 117.041L106.097 115.924C106.218 115.541 106.008 115.135 105.625 115.017Z" fill="white"/>
<path d="M93.5119 117.784L95.0211 119.302C95.1103 119.391 95.2399 119.432 95.3638 119.406L104.876 117.211L105.594 117.047C105.645 117.036 105.697 117.036 105.749 117.041L106.1 115.924C106.221 115.544 106.008 115.138 105.628 115.017L89.1458 109.824C88.7657 109.703 88.3596 109.916 88.2386 110.296L87.6799 112.068L88.0457 112.428L93.5119 117.784Z" fill="#3865A7"/>
<path d="M87.4059 112.931L84.7189 121.459L92.7685 118.193L87.4059 112.931Z" fill="#3865A7"/>
<path d="M102.567 127.133L105.475 117.905L97.8174 119.671L102.567 127.133Z" fill="#3865A7"/>
<path d="M101.918 127.622L96.9793 119.864L95.5393 120.195C95.3319 120.238 95.1217 120.227 94.9287 120.166C94.7502 120.109 94.5831 120.011 94.4449 119.872L93.3822 118.804C93.3562 118.821 93.3303 118.838 93.3015 118.85L84.8948 122.263C84.8026 122.3 84.7076 122.3 84.6212 122.274C84.5722 122.26 84.5262 122.234 84.4858 122.199L84.4513 122.312C84.3303 122.692 84.5434 123.098 84.9236 123.219L101.406 128.412C101.786 128.533 102.192 128.319 102.313 127.939L102.359 127.798C102.287 127.815 102.209 127.815 102.14 127.792C102.051 127.766 101.97 127.709 101.918 127.622Z" fill="#3865A7"/>
<path d="M95.0006 69.3167L88.633 72.0613C87.2794 72.646 85.6954 72.0152 85.1136 70.6616L82.6195 64.8728C82.0349 63.5192 82.6656 61.9352 84.0192 61.3535L90.3869 58.6088C91.7405 58.0242 93.3245 58.6549 93.9062 60.0085L96.4003 65.7973C96.9821 67.148 96.3542 68.732 95.0006 69.3167Z" fill="#AA0D0D"/>
<path d="M94.7242 68.591L88.3565 71.3356C87.0029 71.9203 85.4189 71.2895 84.8371 69.9359L82.343 64.1471C81.7584 62.7935 82.3891 61.2095 83.7427 60.6278L90.1104 57.8831C91.464 57.2985 93.048 57.9292 93.6297 59.2828L96.1238 65.0716C96.7056 66.4223 96.0749 68.0063 94.7242 68.591Z" fill="#FE5F5F"/>
<path d="M89.2349 66.9982C88.3105 66.9982 87.4263 66.4568 87.0375 65.5553C86.5162 64.3457 87.0749 62.9374 88.2874 62.4161C88.8721 62.1627 89.5229 62.1541 90.1162 62.3902C90.7095 62.6264 91.1761 63.0785 91.4266 63.6661C91.6801 64.2507 91.6887 64.9016 91.4525 65.4949C91.2164 66.0881 90.7642 66.5547 90.1796 66.8053C89.8714 66.9349 89.5489 66.9982 89.2349 66.9982ZM89.2321 62.5054C88.9498 62.5054 88.6676 62.563 88.3997 62.6782C87.3341 63.1361 86.8417 64.3745 87.3025 65.4401C87.7604 66.5057 89.0017 66.9953 90.0644 66.5374C90.5799 66.3157 90.9773 65.9067 91.1847 65.3825C91.3921 64.8613 91.3834 64.291 91.1617 63.7755C90.9399 63.26 90.5309 62.8625 90.0097 62.6552C89.7562 62.5544 89.4941 62.5054 89.2321 62.5054Z" fill="white"/>
<path d="M132.161 68.8474L122.271 67.9776C120.169 67.7933 118.602 65.9213 118.786 63.8189L119.575 54.8276C119.76 52.7252 121.632 51.1584 123.734 51.3428L133.624 52.2125C135.727 52.3968 137.293 54.2688 137.109 56.3712L136.32 65.3626C136.135 67.465 134.263 69.0317 132.161 68.8474Z" fill="#3A93FB"/>
<path d="M133.348 67.8394L123.458 66.9696C121.355 66.7853 119.789 64.9133 119.973 62.8109L120.762 53.8195C120.946 51.7171 122.818 50.1504 124.921 50.3347L134.811 51.2045C136.913 51.3888 138.48 53.2608 138.295 55.3632L137.506 64.3546C137.319 66.4541 135.45 68.0237 133.348 67.8394Z" fill="#3865A7"/>
<path d="M128.918 63.7411C128.858 63.7411 128.795 63.7382 128.734 63.7324C127.801 63.6432 127.058 62.903 126.966 61.9728L126.948 61.8L130.854 62.1686L130.805 62.3356C130.554 63.1737 129.779 63.7411 128.918 63.7411ZM127.28 62.1196C127.427 62.831 128.026 63.3753 128.763 63.4473C129.5 63.5164 130.191 63.0931 130.468 62.422L127.28 62.1196Z" fill="white"/>
<path d="M131.784 62.5344C131.723 62.5344 131.666 62.5315 131.605 62.5257L126.142 62.0102C125.12 61.9152 124.368 61.0051 124.463 59.9827C124.544 59.1245 125.2 58.4419 126.044 58.3181L126.211 56.544C126.375 54.7958 127.928 53.5027 129.681 53.6697C131.43 53.8339 132.72 55.392 132.556 57.1401L132.389 58.9142C133.195 59.1936 133.711 59.9856 133.63 60.8438C133.584 61.3392 133.348 61.7856 132.965 62.1024C132.628 62.3875 132.213 62.5344 131.784 62.5344ZM129.382 53.9462C127.904 53.9462 126.64 55.0752 126.499 56.5728L126.309 58.5859L126.188 58.5945C125.428 58.655 124.823 59.2512 124.751 60.0115C124.67 60.8755 125.307 61.6445 126.168 61.7251L131.631 62.2406C132.052 62.2809 132.458 62.1542 132.78 61.8864C133.103 61.6185 133.304 61.2413 133.342 60.8237C133.414 60.0633 132.93 59.3635 132.196 59.1619L132.08 59.1302L132.271 57.1171C132.42 55.5245 131.248 54.1104 129.656 53.9577C129.563 53.9491 129.474 53.9462 129.382 53.9462Z" fill="white"/>
<path d="M74.4433 97.8315L39.1115 113.343C37.5015 114.052 35.6209 113.317 34.9124 111.707L28.778 97.7278C28.0695 96.1179 28.8039 94.2372 30.4139 93.5288L65.7428 78.0171C67.3528 77.3086 69.2334 78.043 69.9419 79.6529L76.0792 93.6296C76.7876 95.2452 76.0532 97.123 74.4433 97.8315Z" fill="#AA0D0D"/>
<path d="M74.5012 95.4902L38.5703 111.264C37.4615 111.751 36.1684 111.247 35.6817 110.138L29.5991 96.2822C29.1124 95.1734 29.6164 93.8802 30.7252 93.3935L66.6532 77.6197C67.762 77.133 69.0551 77.637 69.5418 78.7458L75.6244 92.6015C76.114 93.7103 75.61 95.0034 74.5012 95.4902Z" fill="#FE5F5F"/>
<path d="M45.055 91.2181L34.4492 95.8747L39.1057 106.48L49.7115 101.824L45.055 91.2181Z" fill="white"/>
<path d="M49.6986 92.2041C49.5892 92.2041 49.4826 92.1408 49.4337 92.0313C49.3703 91.8844 49.4366 91.7145 49.5806 91.6512L65.4033 84.7046C65.5502 84.6412 65.7201 84.7075 65.7834 84.8515C65.8468 84.9984 65.7806 85.1683 65.6366 85.2316L49.8138 92.1782C49.7764 92.1955 49.739 92.2041 49.6986 92.2041Z" fill="white"/>
<path d="M53.2264 100.236C53.1169 100.236 53.0104 100.173 52.9614 100.064C52.8981 99.9167 52.9643 99.7468 53.1083 99.6834L68.931 92.7369C69.0779 92.6735 69.2478 92.7397 69.3112 92.8837C69.3745 93.0306 69.3083 93.2005 69.1643 93.2639L53.3416 100.21C53.3042 100.228 53.2638 100.236 53.2264 100.236Z" fill="white"/>
<path d="M51.4609 96.2216C51.3515 96.2216 51.2449 96.1583 51.196 96.0488C51.1326 95.9019 51.1988 95.732 51.3428 95.6687L59.6948 92.0024C59.8417 91.9391 60.0116 92.0053 60.075 92.1493C60.1384 92.2962 60.0721 92.4661 59.9281 92.5295L51.5761 96.1957C51.5387 96.213 51.5012 96.2216 51.4609 96.2216Z" fill="white"/>
<path d="M61.7425 91.7058C61.6331 91.7058 61.5265 91.6424 61.4776 91.533C61.4142 91.3861 61.4804 91.2162 61.6244 91.1529L67.1656 88.7193C67.3124 88.6559 67.4824 88.7222 67.5457 88.8662C67.6091 89.013 67.5428 89.1829 67.3988 89.2463L61.8577 91.6799C61.8203 91.7001 61.7828 91.7058 61.7425 91.7058Z" fill="white"/>
<path d="M135.139 103.01C135.263 106.008 131.954 112.54 130.304 115.221C129.975 115.754 128.832 116.356 127.948 115.233C126.001 112.762 121.638 106.576 121.514 103.58C121.356 99.8191 124.279 96.6396 128.043 96.4841C131.804 96.3228 134.981 99.246 135.139 103.01Z" fill="#AA0D0D"/>
<path d="M135.871 102.644C135.995 105.642 131.951 112.54 130.304 115.221C129.975 115.754 129.215 115.786 128.844 115.282C126.977 112.747 122.372 106.213 122.245 103.214C122.087 99.4532 125.01 96.2737 128.774 96.1181C132.536 95.9597 135.715 98.883 135.871 102.644Z" fill="#FE5F5F"/>
<path d="M133.095 102.644C133.187 104.876 131.453 106.76 129.224 106.855C126.992 106.947 125.108 105.213 125.013 102.984C124.921 100.752 126.655 98.8683 128.884 98.7733C131.116 98.6782 133.003 100.412 133.095 102.644Z" fill="white"/>
</svg>
