<svg width="154" height="131" viewBox="0 0 154 131" fill="none" xmlns="http://www.w3.org/2000/svg">
<path d="M95.5196 117.962C114.414 137.214 165.183 109.039 150.6 68.7164C136.017 28.3942 121.634 56.2042 88.2605 18.4098C70.2265 -2.01312 50.5013 -14.7476 13.865 37.0551C-9.61391 70.2535 1.73491 132.645 25.9495 130.837C50.1642 129.029 55.3728 77.0561 95.5196 117.962Z" fill="#F1F2F2"/>
<path d="M27.8827 57.3934H26.3157L28.2573 55.6524L27.8827 57.3934Z" fill="#50336E"/>
<path d="M15.5564 98.1273H57.7955V57.1047L42.157 35.8243L27.2853 56.0777V66.9758L15.5564 78.7047V98.1273Z" fill="#D9A78B"/>
<path d="M57.7955 92.5361H15.5564V93.1906H57.7955V92.5361Z" fill="#B68B73"/>
<path d="M71.3846 57.1047H57.7956V98.1273H71.3846V57.1047Z" fill="#B68B73"/>
<path d="M41.8728 35.4385H55.8827L72.3455 57.1046H57.7957L41.8728 35.4385Z" fill="#3864A7"/>
<path d="M60.7201 57.1052L44.2463 35.4391H43.0121L59.486 57.1052H60.7201Z" fill="#073D8E"/>
<path d="M63.1532 57.1045L46.6816 35.4384H45.4452L61.919 57.1045H63.1532Z" fill="#073D8E"/>
<path d="M65.5861 57.1045L49.1145 35.4384H47.8803L64.3519 57.1045H65.5861Z" fill="#073D8E"/>
<path d="M68.0193 57.1045L51.5476 35.4384H50.3135L66.7851 57.1045H68.0193Z" fill="#073D8E"/>
<path d="M70.4545 57.1045L53.9807 35.4384H52.7465L69.2181 57.1045H70.4545Z" fill="#073D8E"/>
<path d="M72.3454 57.1045L55.8826 35.4384H55.1796L71.6512 57.1045H72.3454Z" fill="#073D8E"/>
<path d="M53.2776 31H50.9217V37.0584H53.2776V31Z" fill="#3864A7"/>
<path d="M50.9218 37.0584L49.8199 35.4386H48.7113V31H50.9218V37.0584Z" fill="#073D8D"/>
<path d="M26.9835 57.3933H25.7648L41.8728 35.4385L42.4612 36.2385L26.9835 57.3933Z" fill="#3864A7"/>
<path d="M27.2854 66.2838L13 80.3026L15.0893 80.3004L15.5565 79.8221V98.1274H27.2854V68.0205V66.2838Z" fill="#B68B73"/>
<path d="M36.6762 63.0067H32.6894V74.0635H36.6762V63.0067Z" fill="white"/>
<path d="M44.2419 63.0067H40.2573V74.0635H44.2419V63.0067Z" fill="white"/>
<path d="M51.81 63.0067H47.8232V74.0635H51.81V63.0067Z" fill="white"/>
<path d="M36.6762 78.9803H32.6894V90.037H36.6762V78.9803Z" fill="white"/>
<path d="M44.2419 78.9803H40.2573V90.037H44.2419V78.9803Z" fill="white"/>
<path d="M51.81 78.9803H47.8232V90.037H51.81V78.9803Z" fill="white"/>
<path d="M45.3293 51.7792C45.7012 50.1936 44.7174 48.6068 43.1318 48.2348C41.5463 47.8628 39.9594 48.8467 39.5874 50.4322C39.2155 52.0178 40.1993 53.6047 41.7849 53.9766C43.3704 54.3486 44.9573 53.3648 45.3293 51.7792Z" fill="white"/>
<path d="M67.1759 32.1321L64 35.308H69.3483L67.1759 32.1321Z" fill="#50336E"/>
<path d="M67.1759 32.132V97.0643H94.6481C94.6481 97.0643 94.6481 44.4385 94.6481 43.3011L75.4931 23.8976L67.1759 32.132Z" fill="#D9A78B"/>
<path d="M117.447 43.3012H94.648V97.0644H117.447V43.3012Z" fill="#B68B73"/>
<path d="M75.4931 23.8976H97.2638L117.447 43.3011H94.6481L75.4931 23.8976Z" fill="#FE5F5F"/>
<path d="M98.5254 25.1105H76.6888L77.2247 25.6536H99.0904L98.5254 25.1105Z" fill="#E41717"/>
<path d="M102.098 28.5446H80.0814L80.6172 29.0877H102.663L102.098 28.5446Z" fill="#E41717"/>
<path d="M105.671 31.9811H83.4717L84.0075 32.5242H106.236L105.671 31.9811Z" fill="#E41717"/>
<path d="M109.244 35.415H86.8618L87.3976 35.9581H109.809L109.244 35.415Z" fill="#E41717"/>
<path d="M112.819 38.849H90.2545L90.7902 39.3921H113.384L112.819 38.849Z" fill="#E41717"/>
<path d="M116.392 42.2855H93.6447L94.1805 42.8286H116.957L116.392 42.2855Z" fill="#E41717"/>
<path d="M87.0518 19H84.4483V25.0863H87.0518V19Z" fill="#FE5F5F"/>
<path d="M84.4483 25.0863L83.2306 23.9026H82.0056V19H84.4483V25.0863Z" fill="#E41717"/>
<path d="M94.648 94.2879H64.414V98.9981H94.648V94.2879Z" fill="#B68B73"/>
<path d="M94.6479 99H119.268V94.2898H94.6479V99Z" fill="#B68B73"/>
<path d="M77.6971 38.5057H73.6591V33.1331C73.6591 32.0176 74.5627 31.1141 75.6781 31.1141C76.7936 31.1141 77.6971 32.0176 77.6971 33.1331V38.5057Z" fill="white"/>
<path d="M73.6591 56.633H70.0107V46.7864C70.0107 45.7781 70.8266 44.9622 71.8349 44.9622C72.8432 44.9622 73.6591 45.7781 73.6591 46.7864V56.633Z" fill="white"/>
<path d="M79.1414 56.633H75.4931V46.7864C75.4931 45.7781 76.309 44.9622 77.3173 44.9622C78.3256 44.9622 79.1414 45.7781 79.1414 46.7864V56.633Z" fill="white"/>
<path d="M84.5603 56.633H80.912V46.7864C80.912 45.7781 81.7278 44.9622 82.7361 44.9622C83.7444 44.9622 84.5603 45.7781 84.5603 46.7864V56.633Z" fill="white"/>
<path d="M90.0815 56.633H86.4332V46.7864C86.4332 45.7781 87.2491 44.9622 88.2574 44.9622C89.2657 44.9622 90.0815 45.7781 90.0815 46.7864V56.633Z" fill="white"/>
<path d="M73.6591 72.1494H70.0107V62.3028C70.0107 61.2945 70.8266 60.4786 71.8349 60.4786C72.8432 60.4786 73.6591 61.2945 73.6591 62.3028V72.1494Z" fill="white"/>
<path d="M79.1414 72.1494H75.4931V62.3028C75.4931 61.2945 76.309 60.4786 77.3173 60.4786C78.3256 60.4786 79.1414 61.2945 79.1414 62.3028V72.1494Z" fill="white"/>
<path d="M84.5603 72.1494H80.912V62.3028C80.912 61.2945 81.7278 60.4786 82.7361 60.4786C83.7444 60.4786 84.5603 61.2945 84.5603 62.3028V72.1494Z" fill="white"/>
<path d="M90.0815 72.1494H86.4332V62.3028C86.4332 61.2945 87.2491 60.4786 88.2574 60.4786C89.2657 60.4786 90.0815 61.2945 90.0815 62.3028V72.1494Z" fill="white"/>
<path d="M73.6591 86.9036H70.0107V77.0593C70.0107 76.0511 70.8266 75.2352 71.8349 75.2352C72.8432 75.2352 73.6591 76.0511 73.6591 77.0593V86.9036Z" fill="white"/>
<path d="M79.1414 86.9036H75.4931V77.0593C75.4931 76.0511 76.309 75.2352 77.3173 75.2352C78.3256 75.2352 79.1414 76.0511 79.1414 77.0593V86.9036Z" fill="white"/>
<path d="M84.5603 86.9036H80.912V77.0593C80.912 76.0511 81.7278 75.2352 82.7361 75.2352C83.7444 75.2352 84.5603 76.0511 84.5603 77.0593V86.9036Z" fill="white"/>
<path d="M90.0815 86.9036H86.4332V77.0593C86.4332 76.0511 87.2491 75.2352 88.2574 75.2352C89.2657 75.2352 90.0815 76.0511 90.0815 77.0593V86.9036Z" fill="white"/>
<path d="M64 35.3079L75.493 23.8976L76.0215 24.4334L65.0935 35.3079H64Z" fill="#E41717"/>
<path d="M101.504 49.3462H98.7665V56.6331H101.504V49.3462Z" fill="white"/>
<path d="M105.471 49.3462H102.734V56.6331H105.471V49.3462Z" fill="white"/>
<path d="M109.439 49.3462H106.701V56.6331H109.439V49.3462Z" fill="white"/>
<path d="M113.406 49.3462H110.669V56.6331H113.406V49.3462Z" fill="white"/>
<path d="M101.504 60.481H98.7665V67.768H101.504V60.481Z" fill="white"/>
<path d="M105.471 60.481H102.734V67.768H105.471V60.481Z" fill="white"/>
<path d="M109.439 60.481H106.701V67.768H109.439V60.481Z" fill="white"/>
<path d="M113.406 60.481H110.669V67.768H113.406V60.481Z" fill="white"/>
<path d="M101.504 71.5917H98.7665V78.8787H101.504V71.5917Z" fill="white"/>
<path d="M105.471 71.5917H102.734V78.8787H105.471V71.5917Z" fill="white"/>
<path d="M109.439 71.5917H106.701V78.8787H109.439V71.5917Z" fill="white"/>
<path d="M113.406 71.5917H110.669V78.8787H113.406V71.5917Z" fill="white"/>
<path d="M101.504 81.7305H98.7665V89.0175H101.504V81.7305Z" fill="white"/>
<path d="M105.471 81.7305H102.734V89.0175H105.471V81.7305Z" fill="white"/>
<path d="M109.439 81.7305H106.701V89.0175H109.439V81.7305Z" fill="white"/>
<path d="M113.406 81.7305H110.669V89.0175H113.406V81.7305Z" fill="white"/>
</svg>
