<svg width="152" height="148" viewBox="0 0 152 148" fill="none" xmlns="http://www.w3.org/2000/svg">
<path d="M133.814 76.4578C161.482 70.5269 159.171 15.157 113.389 7.16813C67.6072 -0.820727 87.2832 24.6507 34.7775 33.2563C6.40497 37.9065 -15.4153 47.7323 16.4424 103.22C36.8588 138.78 102.237 160.302 112.292 139.632C122.348 118.963 75.0254 89.0598 133.814 76.4578Z" fill="#F1F2F2"/>
<path d="M41.0437 27.1072C41.0437 27.1072 43.8194 26.8168 44.8188 29.4988C45.8181 32.1825 46.7615 33.0607 46.8785 34.4705C47.3553 40.1725 50.0157 38.8833 49.2675 42.1701C48.5192 45.4568 48.0017 45.9544 48.0017 45.9544L41.6426 44.706L35.2003 44.7264C35.2003 44.7264 37.7199 43.4661 37.16 40.7823C36.5984 38.0986 35.2003 33.701 35.9909 30.7048C36.7799 27.7119 39.3843 27.3365 41.0437 27.1072Z" fill="#454240"/>
<path d="M39.2874 115.213C39.2874 115.213 37.2938 117.955 37.5771 118.396C37.8605 118.838 40.0356 118.901 41.359 118.396C42.6825 117.892 42.7147 114.624 43.3136 113.221C43.5647 112.633 43.0269 110.899 42.2736 110.773C41.5185 110.647 40.6346 111.043 40.6346 111.043C40.6346 111.043 41.4065 113.039 39.2874 115.213Z" fill="#3865A7"/>
<path d="M40.6348 111.043C40.6348 111.043 40.477 112.338 40.2259 113.251C39.9731 114.167 38.6174 116.249 38.6819 116.502C38.7447 116.756 40.4464 116.983 41.1404 116.333C41.8343 115.682 42.3705 113.798 42.4332 112.657C42.496 111.516 42.2755 110.773 42.2755 110.773C42.2755 110.773 41.2965 110.349 40.6348 111.043Z" fill="#E7A585"/>
<path d="M43.314 113.221V116.139H42.9356V113.883L43.314 113.221Z" fill="#4F5587"/>
<path d="M44.5047 115.213C44.5047 115.213 42.5111 117.955 42.7945 118.396C43.0778 118.838 45.2529 118.901 46.5764 118.396C47.8998 117.892 47.932 114.624 48.5309 113.221C48.782 112.633 48.2442 110.899 47.4909 110.773C46.7358 110.647 45.8519 111.043 45.8519 111.043C45.8519 111.043 46.6239 113.039 44.5047 115.213Z" fill="#3865A7"/>
<path d="M45.8521 111.043C45.8521 111.043 45.6943 112.338 45.4432 113.251C45.1904 114.167 43.8347 116.249 43.8992 116.502C43.9619 116.756 45.6637 116.983 46.3577 116.333C47.0516 115.682 47.5878 113.798 47.6506 112.657C47.7133 111.516 47.4928 110.773 47.4928 110.773C47.4928 110.773 46.5138 110.349 45.8521 111.043Z" fill="#E7A585"/>
<path d="M48.5312 113.221V116.139H48.1529V113.883L48.5312 113.221Z" fill="#4F5587"/>
<path d="M35.6229 65.6102C35.6229 65.6102 34.1145 73.928 33.7073 76.0104C33.3001 78.0912 32.1583 88.1704 32.0361 89.8843C31.914 91.5981 35.7552 99.8412 35.9945 100.41C40.0139 109.929 40.4771 112.083 40.4771 112.083C40.4771 112.083 41.7971 112.91 42.4062 111.923C42.5912 111.622 39.9325 100.707 39.4947 97.679C39.0875 94.8627 38.0271 90.5144 38.3121 89.5259C38.5972 88.5373 41.2067 74.9183 41.6953 74.3458C42.184 73.7751 42.9186 74.672 43.2037 75.9374C43.4887 77.2028 44.0995 88.1381 44.466 89.5259C44.8325 90.9136 44.5474 95.6067 44.751 97.9728C44.9546 100.339 45.803 111.386 45.803 111.386C45.803 111.386 47.4454 111.68 47.6082 111.417C47.7711 111.154 49.1929 99.1465 49.2337 96.332C49.2744 93.5158 49.3185 89.6329 49.3966 88.4167C50.1516 76.7493 51.5785 75.2223 49.0844 66.8263C42.9865 46.2772 35.6229 65.6102 35.6229 65.6102Z" fill="#E7A585"/>
<path d="M35.6228 65.6103C35.6228 65.6103 34.1145 73.9281 33.7073 76.0106C33.3001 78.0913 32.1582 88.1706 32.036 89.8844C31.9139 91.5983 35.6228 99.8414 35.7043 100.453C35.7857 101.064 38.8397 109.826 38.8397 109.826C38.8397 109.826 41.926 109.773 42.7658 108.973C42.9355 108.811 39.9324 100.706 39.4946 97.6774C39.0874 94.8612 38.027 90.5129 38.3121 89.5243C38.5971 88.5358 41.2066 74.9167 41.6952 74.3443C42.1839 73.7736 42.9185 74.6704 43.2036 75.9358C43.4886 77.2013 44.0994 88.1366 44.4659 89.5243C44.8324 90.912 44.5473 95.6052 44.7509 97.9712C44.9545 100.337 44.5253 108.747 44.5253 108.747C44.5253 108.747 48.5668 108.959 48.7297 108.696C48.8925 108.433 49.1946 99.1467 49.2353 96.3304C49.276 93.5142 49.3201 89.6313 49.3982 88.4152C50.1532 76.7478 51.5801 75.2207 49.086 66.8248C42.9864 46.2773 35.6228 65.6103 35.6228 65.6103Z" fill="#FE5F5F"/>
<path d="M49.6933 68.4094C49.9291 68.3143 48.0407 62.067 47.6674 60.2003C47.3298 58.517 46.1794 56.9747 47.3026 54.1059C47.9457 52.4634 47.9033 50.5219 47.9033 50.5219C47.9033 50.5219 49.6203 54.3165 49.7849 55.2949C49.9478 56.2749 43.8482 54.4931 43.7634 54.6273C43.6022 54.8855 43.424 56.5382 43.424 57.1089C43.424 57.5811 52.2807 59.6754 53.3292 57.8189C53.6262 57.2924 51.7038 47.2165 50.4619 45.8747C48.4241 43.6716 43.0711 41.7947 43.0711 41.7947C43.0711 41.7947 41.6035 41.0066 39.0211 41.8219C36.4405 42.6372 32.8266 45.1409 32.2005 45.7931C31.5761 46.4454 29.0752 56.2851 28.8563 57.559C28.651 58.7582 28.7308 61.2789 31.4641 60.9562L38.8413 59.2644L38.3832 57.0138L32.8537 57.452C31.7254 57.6457 32.2667 56.6537 32.4109 56.1017C32.5517 55.5615 33.9396 50.5542 33.9396 50.5542C33.8598 51.9419 34.905 56.4957 35.4479 58.0737C35.9909 59.6517 34.7896 68.0952 34.7082 69.0192C34.7082 69.0209 39.1501 72.6728 49.6933 68.4094Z" fill="#3865A7"/>
<path d="M44.2725 42.2585C44.2725 42.2585 42.4536 46.0191 40.9334 47.1198C40.9334 47.1198 38.1966 43.0143 38.3375 42.0682C38.3358 42.0682 41.3677 40.7213 44.2725 42.2585Z" fill="#E7A585"/>
<path d="M44.3386 54.9349C44.3386 54.9349 43.4953 54.5935 43.2731 54.2877C43.0491 53.982 42.3026 53.7985 41.7477 53.9633C41.1946 54.1281 41.5 56.5077 41.5 56.5077L44.42 56.8865L44.3386 54.9349Z" fill="#E7A585"/>
<path d="M39.0535 56.7522C39.0535 56.7522 39.3334 55.215 39.2673 54.9313C39.1994 54.6477 39.7661 54.3623 39.8458 55.0638C39.9239 55.7653 39.9663 56.212 39.9663 56.212L39.0535 56.7522Z" fill="#E7A585"/>
<path d="M40.2681 57.8189L42.3941 57.7323C42.6655 57.7204 42.881 57.4996 42.8844 57.2261L42.9421 52.5669C42.9455 52.2748 42.7046 52.0387 42.4127 52.0489L39.8677 52.1321C39.5759 52.1423 39.3519 52.392 39.374 52.6841L39.7354 57.345C39.7574 57.6219 39.9933 57.8308 40.2681 57.8189Z" fill="#ECEBEB"/>
<path d="M39.0076 56.878C39.0076 56.878 38.9686 56.4415 39.8068 56.0406C40.9198 55.509 42.4044 54.9688 42.6572 55.1081C43.022 55.3086 42.8336 55.5871 42.1312 55.8181C41.4288 56.0508 41.1964 56.1239 41.1964 56.1239C41.1964 56.1239 42.5724 55.9931 42.8812 56.1578C43.19 56.3226 43.2069 56.7031 42.9813 56.7659C42.7556 56.8288 42.2245 56.8661 42.2245 56.8661C42.2245 56.8661 42.8082 56.8882 42.8659 57.1226C42.9083 57.2959 42.9304 57.5456 42.3772 57.6475C42.3772 57.6475 42.7522 58.0636 42.1906 58.3303C41.629 58.597 40.6127 58.8399 40.102 58.9248C39.0399 59.0997 36.6425 58.969 36.6425 58.969L37.6265 57.2993C37.6265 57.2993 38.1746 57.3417 38.5512 57.2143C39.0585 57.0428 39.0076 56.878 39.0076 56.878Z" fill="#E7A585"/>
<path d="M38.385 57.0156L38.8431 59.2662L34.1416 60.3448L33.9601 57.3655L38.385 57.0156Z" fill="#474D7C"/>
<path d="M43.7618 54.6275C43.7618 54.6275 43.375 55.4598 43.4225 57.1091C43.4225 57.1091 46.3391 58.1758 48.6025 58.4221V55.56L43.7618 54.6275Z" fill="#474D7C"/>
<path d="M38.8413 59.2662L35.5464 61.1006C35.5684 60.7185 35.5854 60.3516 35.5939 60.0119L38.8413 59.2662Z" fill="#20233A"/>
<path d="M47.5046 59.5107C44.8612 58.4593 43.8024 57.5115 43.5123 57.2092C43.4495 57.1446 43.4224 57.109 43.4224 57.109L47.1771 58.2046C47.2722 58.6615 47.3943 59.0878 47.5046 59.5107Z" fill="#20233A"/>
<path d="M41.4101 28.6767C41.4101 28.6767 45.0868 29.2084 44.5473 34.6403C44.0094 40.074 40.7653 39.6426 40.5482 39.6375C40.331 39.6324 37.2939 39.7513 37.0309 33.1218C37.0309 33.1218 36.9071 28.2198 41.4101 28.6767Z" fill="#E7A585"/>
<path d="M43.0422 38.6744C43.0422 38.6744 42.8149 41.5008 43.3578 42.3467C43.9024 43.1926 42.8929 44.3425 40.8145 43.9501C38.736 43.5561 38.8565 42.3773 38.8565 42.3773C38.8565 42.3773 39.4385 40.6328 39.2688 39.2366C39.0991 37.8421 43.0422 38.6744 43.0422 38.6744Z" fill="#E7A585"/>
<path d="M40.9893 30.6472C40.9893 30.6472 42.7063 32.4545 43.5055 33.37C44.3029 34.2855 44.3945 36.0537 44.3945 36.0537C44.3945 36.0537 45.7383 34.4095 45.1767 32.4969C44.6151 30.5827 43.2849 26.8594 39.9187 28.0042C36.5525 29.1491 36.4286 34.1836 36.8222 36.6788C36.8222 36.6771 38.3323 31.167 40.9893 30.6472Z" fill="#454240"/>
<path d="M39.5403 39.3929C39.5403 39.3929 41.1064 40.1335 42.6317 39.0396C42.6317 39.0396 42.2075 39.9144 41.086 40.0401C39.9628 40.1624 39.5403 39.3929 39.5403 39.3929Z" fill="#A4775F"/>
<path d="M39.0058 40.3782C39.0058 40.3782 33.948 44.8828 35.2613 47.6939C36.3811 50.0923 40.3547 48.6213 39.6981 46.1074C39.0432 43.5953 39.0058 40.3782 39.0058 40.3782Z" fill="#454240"/>
<path d="M40.3836 53.0324C40.3836 53.2074 40.2428 53.3484 40.068 53.3484C39.8932 53.3484 39.7524 53.2057 39.7524 53.0324C39.7524 52.8575 39.8949 52.7165 40.068 52.7165C40.2428 52.7148 40.3836 52.8575 40.3836 53.0324Z" fill="#48484D"/>
<path d="M62.8001 114.766C62.8001 114.766 61.7549 116.333 60.289 116.671C58.8231 117.009 57.3792 117.547 57.3673 118.473C57.3555 119.398 61.6056 119.952 63.2837 119.018C65.7879 117.625 66.0424 118.045 66.319 117.348C66.5973 116.652 65.9848 114.789 66.0034 114.568C66.0272 114.293 62.8001 114.766 62.8001 114.766Z" fill="#353A3D"/>
<path d="M62.9627 113.993C62.9627 113.993 62.7726 114.749 62.7998 114.766C62.8286 114.782 66.1032 115.172 66.0048 114.566C65.9251 114.073 65.8097 113.54 65.8097 113.54L62.9627 113.993Z" fill="#82807F"/>
<path d="M73.8217 114.663C73.8217 114.663 73.0769 116.161 71.8027 116.671C70.4419 117.216 69.3493 117.843 69.3747 118.744C69.4002 119.646 72.7036 120.562 75.1061 118.829C76.6246 117.735 77.1065 117.73 77.3491 117.041C77.5934 116.351 76.9266 114.561 76.9351 114.345C76.947 114.077 73.8217 114.663 73.8217 114.663Z" fill="#353A3D"/>
<path d="M73.7843 113.885C73.7843 113.885 73.7928 114.648 73.8216 114.663C73.8505 114.676 77.0148 114.938 76.935 114.345C76.8705 113.873 76.6279 113.304 76.6279 113.304L73.7843 113.885Z" fill="#82807F"/>
<path d="M62.179 68.1461C62.179 68.1461 59.2387 81.1316 58.5668 85.0875C57.995 88.4541 57.5386 91.9599 57.8135 94.3906C58.1528 97.3987 62.4081 112.995 62.2299 113.876C62.0518 114.758 66.682 114.017 66.682 114.017C66.682 114.017 63.4465 96.6224 64.0929 93.385C64.5714 90.9866 68.7656 75.0576 69.4086 75.8746C70.0516 76.6916 70.8491 90.9085 71.3241 93.2678C71.8009 95.6271 73.2618 114.274 73.2618 114.274C73.2618 114.274 76.5296 114.756 77.4034 114.017C77.4034 114.017 77.8004 98.0951 77.4967 93.6721C77.3813 91.9854 79.4699 73.4558 76.7909 65.9958C75.3758 62.0517 62.179 68.1461 62.179 68.1461Z" fill="#2D3132"/>
<path d="M49.3792 56.3412C51.4746 56.0456 58.0696 58.9706 58.6685 58.7497C59.0808 58.5986 60.0479 55.4443 60.7385 53.0562C61.1474 51.6447 61.4596 50.4998 61.502 50.4047L61.5037 50.3996C61.4969 50.4625 61.39 51.5428 61.5258 52.9611C61.5342 53.0528 61.5444 53.1462 61.5546 53.2413C61.558 53.2651 61.5614 53.2906 61.5631 53.3161C61.6242 53.8239 61.7192 54.3658 61.86 54.9144C62.0687 55.7229 62.1688 56.7879 62.2061 57.9124V57.9175C62.2061 57.9259 62.2061 57.9344 62.2078 57.9429C62.2078 57.9684 62.2095 57.9939 62.2095 58.0211C62.2095 58.0313 62.2112 58.0414 62.2112 58.0533C62.2706 60.0984 62.1281 62.3014 62.0704 63.4751C61.9788 65.2926 62.576 66.1113 62.593 66.1334L63.2241 66.0451L63.6805 65.9805L63.6856 65.9788L64.2947 65.8939L66.6854 65.5576L67.5507 65.4353L67.756 65.4064L69.2711 65.1941L73.5433 64.5928L74.0116 64.5266L74.205 64.4994L75.8152 64.2718L76.5431 64.1699H76.5465C76.5465 64.1699 77.1658 59.7791 77.2116 57.4062C77.254 55.2269 78.4196 50.8005 78.6096 50.0922C78.6113 50.0871 78.613 50.082 78.613 50.0769C78.6147 50.0701 78.6164 50.0633 78.6181 50.0582C78.6215 50.0463 78.6249 50.0361 78.6266 50.0276C78.6283 50.0225 78.63 50.0174 78.63 50.0124C78.63 50.0107 78.63 50.009 78.6317 50.009C78.6317 50.0073 78.6334 50.0056 78.6334 50.0039C78.6351 49.9988 78.6351 49.9971 78.6351 49.9971C78.6351 49.9971 82.1218 53.6643 82.7987 55.2643C83.0057 55.7501 83.6352 57.0699 84.4394 58.6784C84.9891 57.6287 85.3319 56.9 85.3319 56.7166C85.3319 56.6945 85.3319 56.6707 85.3302 56.6452C85.2793 55.0639 83.6233 48.6484 82.3152 44.4581C81.3006 42.4164 80.4251 40.7637 80.1451 40.5633C79.7193 40.2575 77.9293 39.4898 76.3683 38.8698C76.3174 38.8494 76.2665 38.829 76.2156 38.8104C76.0697 38.7526 75.9255 38.6965 75.7864 38.6422C75.7168 38.615 75.6472 38.5895 75.5794 38.5624C75.542 38.5488 75.5047 38.5352 75.4691 38.5199C75.4385 38.508 75.4097 38.4978 75.3791 38.4859C74.5987 38.1887 74.0048 37.9815 73.8827 37.9747C73.8623 37.973 73.8301 37.973 73.786 37.9747C73.7351 37.9764 73.6672 37.9781 73.5891 37.9832C72.6237 38.0392 69.7428 38.3093 68.8147 38.3976C68.6467 38.4129 68.5415 38.4231 68.5263 38.4248C68.5246 38.4248 68.5246 38.4248 68.5246 38.4248C68.5246 38.4248 68.0834 38.6269 67.4183 38.9309L67.3572 38.9598C66.9551 39.145 66.4902 39.3896 65.9982 39.6596C65.0345 40.1879 63.969 40.8062 63.0867 41.2274C62.2214 41.6402 61.0354 42.2143 60.9336 42.2941L56.546 54.9586L48.9347 53.5657L49.3792 56.3412Z" fill="#DDCAC3"/>
<path d="M62.5929 66.1316C62.5929 66.1316 62.2723 66.5172 62.179 68.1461C62.179 68.1461 75.3944 66.6021 76.7907 65.994C76.7907 65.994 76.845 64.1987 76.5498 64.1664C76.2241 64.1324 62.5929 66.1316 62.5929 66.1316Z" fill="#495055"/>
<path d="M73.8642 37.5195C73.8235 39.5951 69.8074 40.7314 69.8074 40.7314C69.8074 40.7314 68.1277 38.6235 68.5281 38.4214C68.6859 38.3416 68.7504 38.0273 68.7691 37.674C68.7877 37.3377 68.7657 36.9674 68.7453 36.733C68.7334 36.5853 68.7215 36.4918 68.7215 36.4918C68.7215 36.4918 69.295 35.8854 70.0246 35.1636C71.3005 33.9015 73.0532 32.2828 73.0566 32.9266C73.0566 32.9605 73.0515 33.0013 73.0413 33.0489C72.7359 34.496 73.8642 37.5195 73.8642 37.5195Z" fill="#E7A585"/>
<path d="M73.5298 64.4858C73.5298 64.4858 73.8182 66.3067 73.8437 66.7823L74.4545 66.66C74.4545 66.66 74.2865 64.7338 74.1864 64.4111L73.5298 64.4858Z" fill="#353A3D"/>
<path d="M63.6958 65.9193C63.6958 65.9193 63.4633 67.5754 63.4583 68.2004L64.1047 68.1155C64.1047 68.1155 64.237 66.0484 64.3117 65.8326L63.6958 65.9193Z" fill="#353A3D"/>
<path d="M72.3165 34.4755C72.3081 34.4874 72.1384 34.7438 71.8466 35.109C71.2307 35.8853 70.0718 37.1609 68.7688 37.6721C68.7874 37.3358 68.7654 36.9655 68.745 36.7311C68.611 36.7277 68.4787 36.7125 68.3463 36.6836C68.7043 36.0585 69.2201 35.4029 69.2201 35.4029L70.026 35.1617L72.3165 34.4755Z" fill="#A4775F"/>
<path d="M73.0871 32.9536C72.7393 33.7094 72.4101 34.2581 72.3168 34.4755C72.2557 34.6165 72.0894 34.8475 71.8485 35.109C71.1868 35.8224 69.9567 36.7634 68.747 36.7312C68.6129 36.7278 68.4806 36.7125 68.3483 36.6836C67.8596 36.5766 67.2827 36.349 66.9655 35.7273C64.4595 30.8168 66.2732 26.8014 66.2732 26.8014C66.2732 26.8014 73.1227 24.8616 74.195 26.9271C74.9484 28.376 73.9032 31.1769 73.0871 32.9536Z" fill="#E7A585"/>
<path d="M66.2732 26.8015C66.2732 26.8015 65.6369 26.7658 65.4791 25.5582C65.3231 24.3658 65.6386 24.0345 65.6386 24.0345C65.6386 24.0345 68.467 22.8489 69.4816 22.6961C70.4979 22.5415 72.9937 22.3937 73.5791 23.0647C73.5791 23.0647 75.0009 22.7334 75.3895 25.0978C76.0037 28.8483 73.2941 32.4883 73.2941 32.4883C73.2941 32.4883 73.3178 30.039 72.7783 29.7145C72.2387 29.3901 71.7721 30.1613 71.7721 30.1613L70.6676 30.36C70.6676 30.36 72.3439 26.7353 70.3333 26.6011C68.3245 26.4669 67.4252 27.0121 66.2732 26.8015Z" fill="#434343"/>
<path d="M71.8041 29.1846C71.9093 28.1061 73.8588 27.6933 73.7281 28.8245C73.5975 29.9558 72.6371 31.0429 72.1943 31.0038C71.7498 30.9664 71.7243 30.0067 71.8041 29.1846Z" fill="#E7A585"/>
<path d="M85.3352 56.7115C85.3352 56.6894 85.3352 56.6656 85.3335 56.6401C85.2962 55.0622 84.5208 48.7435 83.2127 44.5532C82.5781 42.5183 82.4322 41.0966 82.1862 40.92C81.7603 40.6142 77.975 39.4932 76.37 38.863C76.3191 38.8426 76.2682 38.8222 76.2173 38.8036C76.0713 38.7458 75.9271 38.6897 75.788 38.6354C75.7184 38.6082 75.6489 38.5827 75.581 38.5556C75.5437 38.542 75.5063 38.5284 75.4707 38.5131C75.4402 38.5012 75.4113 38.491 75.3808 38.4791C75.3791 38.4808 75.3757 38.4842 75.3723 38.4876C75.2298 38.6473 74.4866 39.4932 73.5993 40.7552C71.9416 43.1162 69.78 46.9397 70.1109 50.4693C70.2161 51.6022 70.3484 53.2294 70.569 55.0554C70.5877 55.2116 70.608 55.3679 70.6284 55.5276C70.681 55.9471 70.7404 56.3769 70.8048 56.8117C70.8439 57.0716 70.8829 57.3348 70.9253 57.5998C71.3647 60.3362 72.7408 62.2029 73.9624 64.4348C73.9725 64.4535 73.9827 64.4722 73.9946 64.4909C73.9997 64.5011 74.0065 64.513 74.0116 64.5231C74.037 64.5707 74.0642 64.6183 74.0896 64.6658C74.132 64.744 74.1728 64.8221 74.2152 64.9019C74.2389 64.9478 74.2627 64.9919 74.2864 65.0378C74.5206 65.4862 74.7496 65.9465 74.9719 66.4085C75.1161 66.7058 75.2569 67.0047 75.3944 67.3037C75.4079 67.3343 75.4232 67.3648 75.4368 67.3971C75.4368 67.3971 75.6624 67.9203 75.9509 68.5929C76.0561 68.8392 76.1714 69.1059 76.2868 69.3742C76.3666 69.5577 76.4446 69.7428 76.521 69.9229C76.5888 70.0791 76.6533 70.2337 76.7161 70.3781C76.8552 70.7025 76.9757 70.9862 77.0605 71.1832C77.1233 71.331 77.1657 71.4312 77.1793 71.4652C77.6001 72.5183 77.9038 73.3319 78.0429 73.7107C78.0989 73.8635 78.1277 73.9468 78.1277 73.9468L82.3559 71.6112C83.1584 71.2087 82.7393 69.043 82.4373 68.1971C82.1862 67.4939 81.8333 66.7398 81.4363 65.9601C81.2734 65.6408 81.1037 65.3181 80.9289 64.9936C82.2524 62.6802 83.591 60.2937 84.4411 58.6716C84.9925 57.6236 85.3352 56.8949 85.3352 56.7115ZM78.6147 50.0888C78.6164 50.0837 78.6181 50.0786 78.6181 50.0735C78.6198 50.0667 78.6215 50.0599 78.6232 50.0548C78.6265 50.0446 78.6282 50.0344 78.6316 50.0242C78.6333 50.0191 78.635 50.014 78.635 50.009C78.635 50.0073 78.635 50.0056 78.6367 50.0056C78.6367 50.0039 78.6384 50.0022 78.6384 50.0005C78.6384 50.0005 80.6948 53.2192 80.5404 56.0134C80.5167 56.4482 80.084 57.5489 79.4545 58.957C79.4545 58.9587 79.4545 58.9587 79.4528 58.9604C79.2238 59.4733 78.9693 60.0288 78.6978 60.608C78.6876 60.5842 78.6774 60.5587 78.6673 60.5349C78.2736 59.5735 78.0174 58.6716 78.0174 57.8852C78.0191 57.8852 78.1922 51.7517 78.6147 50.0888Z" fill="#3865A7"/>
<path d="M46.5696 52.0489L56.1422 54.1364L60.7046 42.1904C60.8047 42.1106 62.1146 41.4057 62.9799 40.9929C63.8808 40.5632 65.0227 40.0332 66.0356 39.5644C66.5191 39.3402 66.9739 39.1313 67.359 38.9547L67.3912 38.9801C67.3912 38.9801 66.8262 40.8638 66.095 45.5655V45.5671C66.0695 45.7251 66.0458 45.8865 66.0203 46.0495C66.0186 46.0682 66.0152 46.0886 66.0118 46.1073C65.9949 46.216 65.9779 46.3264 65.9626 46.4385C65.9609 46.4521 65.9592 46.4657 65.9558 46.4776C65.944 46.5523 65.9338 46.6287 65.9236 46.7052C65.8965 46.8903 65.8693 47.0806 65.8405 47.2725C65.5147 49.5605 65.0566 53.4553 64.6172 57.3874V57.3891C64.2693 60.4873 63.4787 63.6687 63.2259 66.0416C63.2259 66.0433 63.2259 66.045 63.2259 66.0467C63.1767 66.5121 63.0579 67.1321 62.8967 67.8302C62.8781 67.91 62.8594 67.9898 62.8407 68.0714C62.1332 71.0659 60.7572 75.3072 60.7572 75.3072L60.3568 74.937L59.1708 73.8414C58.8976 73.59 58.7941 73.2027 58.9044 72.8477C59.5627 70.7228 61.7973 63.205 62.2079 57.9191C62.2079 57.9174 62.2079 57.9157 62.2079 57.914C62.3368 56.2528 61.8516 54.6884 61.5699 53.2056C61.5648 53.2192 61.5597 53.2311 61.5563 53.2446C61.3205 53.9003 61.0609 54.612 60.7979 55.3067C60.0921 57.17 59.371 58.8958 59.069 59.0062C58.4005 59.2525 45.7959 55.8027 45.7076 55.3067L46.5696 52.0489Z" fill="#3865A7"/>
<path d="M74.2697 43.6326L72.3168 44.7349L73.1516 45.5876L70.9289 57.5998C70.4759 54.7836 70.2689 52.1101 70.1162 50.471C69.6055 45.0135 75.0468 38.8562 75.3844 38.4791C75.6457 38.5793 75.9273 38.688 76.2192 38.8036L74.2697 43.6326Z" fill="#4D6C9E"/>
<path d="M67.4217 38.9257C67.4217 38.9257 66.6921 41.3122 65.8404 47.269C65.5146 49.557 65.0565 53.4518 64.6171 57.384L64.1624 46.1327L65.0938 45.1238L64.2658 44.0893L66.0355 39.5644C66.519 39.3402 66.9738 39.1312 67.3589 38.9546L67.4217 38.9257Z" fill="#4D6C9E"/>
<path d="M75.4824 38.5029L73.8621 37.5177C73.8621 37.5177 73.8162 38.4077 69.8053 40.7297L70.9438 43.9417L75.4824 38.5029Z" fill="#F3E1D8"/>
<path d="M68.7401 37.9662C68.7401 37.9662 68.8029 38.9259 69.8073 40.7297L67.5846 43.6309L67.4218 38.9242L68.7401 37.9662Z" fill="#F3E1D8"/>
<path d="M69.8125 40.7314C69.8125 40.7314 70.2435 42.4571 70.0874 42.9395C70.0874 42.9395 69.1407 43.2843 68.4586 42.8529C68.4603 42.8529 68.9422 41.6452 69.8125 40.7314Z" fill="#FE5F5F"/>
<path d="M67.5848 65.6153C67.3439 64.3974 67.5729 60.7506 67.5831 60.5961L67.7901 60.6097C67.7884 60.647 67.5526 64.3856 67.7884 65.5762L67.5848 65.6153Z" fill="#AD9F99"/>
<path d="M69.2727 65.0548C69.2727 65.0548 67.3283 65.2875 66.6853 65.4472L66.7701 67.6298L69.3169 67.3581L69.2727 65.0548Z" fill="#68737A"/>
<path d="M68.8468 42.6982C68.8468 42.6982 66.6785 48.1812 67.0314 54.3181C67.3979 60.6809 68.0002 62.9875 68.0002 62.9875L69.3372 64.6657L69.9276 62.6019C69.9276 62.6019 68.1325 54.4896 69.2914 46.5964C69.5018 45.1662 69.8122 42.4553 69.8122 42.4553L68.8468 42.6982Z" fill="#FE5F5F"/>
<path d="M75.3639 68.5912C75.3639 68.5912 74.899 69.5237 74.4324 69.6782C73.9675 69.8328 73.2888 70.5904 73.2888 70.5904L76.5651 72.3178C76.5651 72.3178 77.4372 70.609 77.4762 69.522C77.5153 68.4366 75.3639 68.5912 75.3639 68.5912Z" fill="#E7A585"/>
<path d="M75.0518 68.6794L74.8346 69.116C74.8346 69.116 76.9164 70.6396 77.4763 70.7364L77.6681 70.1538L75.0518 68.6794Z" fill="#DDCAC3"/>
<path d="M74.8346 68.6982C74.8346 68.6982 76.3938 69.9891 77.7088 70.5853L82.1286 62.6258L79.8381 58.1926C79.8381 58.1926 74.9381 67.9219 74.8346 68.6982Z" fill="#597EB8"/>
<path d="M61.6326 50.4217C61.5596 51.8943 61.5715 53.2022 61.5715 53.2022C61.5715 53.2022 61.5715 53.2022 61.5715 53.2039C61.5715 53.2107 61.5698 53.2515 61.5664 53.316C61.563 53.2906 61.5596 53.2668 61.5579 53.2413C61.3221 53.897 61.0625 54.6086 60.7995 55.3034C60.7384 54.4999 60.7231 53.7509 60.7401 53.0562C60.8453 48.927 62.1433 46.763 62.1433 46.763C61.843 47.4832 61.7004 49.0272 61.6326 50.4217Z" fill="#2F4261"/>
<path d="M81.4381 65.9617L77.8988 70.2404L80.9308 64.9952C81.1055 65.3197 81.2752 65.6441 81.4381 65.9617Z" fill="#2F4261"/>
<path d="M55.7401 60.5977H47.5706C47.0107 60.5977 46.5237 60.2138 46.3914 59.6686L42.8419 44.9998C42.657 44.2355 43.2355 43.5 44.0211 43.5H52.1906C52.7505 43.5 53.2375 43.8839 53.3698 44.4291L56.9193 59.0979C57.1042 59.8622 56.5256 60.5977 55.7401 60.5977Z" fill="#313555"/>
<path d="M45.7467 56.5196C46.1471 56.1493 46.9174 55.9336 47.5774 55.492C48.2374 55.0504 47.686 54.5951 47.686 54.5951C48.3646 54.3624 48.2917 54.0516 48.2052 53.841C48.0881 53.5556 47.3466 53.6371 47.3466 53.6371C47.3466 53.6371 48.0117 53.4894 48.2849 53.3688C48.5581 53.2482 48.4647 52.7709 48.0457 52.6197C47.6249 52.4685 45.9112 52.8915 45.9112 52.8915C45.9112 52.8915 46.1912 52.7539 47.0361 52.3292C47.8811 51.9046 48.066 51.519 47.5689 51.3339C47.2228 51.2048 46.5424 51.4749 45.236 52.353C44.2519 53.0155 44.3316 53.1004 44.3316 53.1004C44.3316 53.1004 45.2699 56.9629 45.7467 56.5196Z" fill="#E7A585"/>
<path d="M80.9785 116.19C80.9785 116.19 79.0324 118.928 79.2988 119.361C79.5652 119.794 81.6131 119.857 82.8584 119.361C84.1055 118.865 84.1343 115.657 84.6976 114.277C84.9335 113.7 84.4279 111.996 83.7187 111.872C83.0077 111.748 82.2358 112.112 82.2358 112.112C82.2358 112.112 82.9738 114.055 80.9785 116.19Z" fill="#FE5F5F"/>
<path d="M82.2238 112.091C82.2238 112.091 81.8149 113.257 81.6639 114.371C81.54 115.295 80.2777 117.255 80.3371 117.503C80.3964 117.751 81.9981 117.975 82.6513 117.336C83.3046 116.698 83.7236 114.838 83.8678 113.725C84.0019 112.689 84.1699 112.178 84.1699 112.178C84.1699 112.178 82.8464 111.408 82.2238 112.091Z" fill="#E7A585"/>
<path d="M97.9229 116.234C97.9229 116.234 96.0464 118.926 96.3128 119.361C96.5792 119.794 98.6271 119.857 99.8724 119.361C101.118 118.865 101.148 115.657 101.712 114.277C101.947 113.7 101.442 111.996 100.733 111.872C100.023 111.748 99.1904 112.137 99.1904 112.137C99.1904 112.137 99.9182 114.101 97.9229 116.234Z" fill="#FE5F5F"/>
<path d="M99.1923 112.139C99.1923 112.139 99.0447 113.409 98.8072 114.308C98.5696 115.206 97.2938 117.253 97.3531 117.501C97.4125 117.749 99.0142 117.973 99.6674 117.335C100.321 116.696 100.825 114.845 100.884 113.724C100.943 112.603 100.736 111.872 100.736 111.872C100.736 111.872 99.815 111.458 99.1923 112.139Z" fill="#E7A585"/>
<path d="M89.8148 67.5652C89.8148 67.5652 88.1435 75.6843 87.7601 77.7277C87.3766 79.7711 86.3026 89.672 86.1873 91.3552C86.0719 93.0385 84.4448 99.3809 84.5211 99.9822C84.5975 100.584 82.1068 112.66 82.1068 112.66C82.1068 112.66 82.9568 113.375 83.8543 112.725C84.3158 112.39 89.3193 101.419 89.3193 98.4128C89.3193 94.2581 92.2614 88.8329 92.6397 87.9038C96.1654 79.2683 95.4715 76.627 95.9313 76.0665C96.3911 75.506 96.4318 76.413 96.6999 77.6564C96.968 78.898 97.5432 89.6397 97.8893 91.0036C98.2354 92.3659 97.9656 96.9758 98.159 99.3011C98.3508 101.626 99.1923 112.141 99.1923 112.141C99.1923 112.141 99.8456 113.209 100.76 112.168C100.957 111.943 102.34 100.454 102.379 97.6892C102.418 94.9239 102.458 91.1089 102.531 89.9132C103.242 78.453 104.99 76.8156 102.238 68.7049C97.085 53.5181 89.8148 67.5652 89.8148 67.5652Z" fill="#E7A585"/>
<path d="M101.033 65.2959C101.033 65.2959 105.793 72.2549 103.743 87.0562C103.743 87.0562 92.455 88.6596 86.4063 85.2013C86.4063 85.2013 88.9072 69.9398 89.8132 67.5652C90.721 65.1906 101.033 65.2959 101.033 65.2959Z" fill="#FE5F5F"/>
<path d="M84.7499 114.036V116.903H84.3953V114.688L84.7499 114.036Z" fill="#FE5F5F"/>
<path d="M101.766 114.036V116.903H101.41V114.688L101.766 114.036Z" fill="#FE5F5F"/>
<path d="M95.39 34.4417C95.39 34.4417 92.202 37.6554 93.2879 41.7948C94.3737 45.9342 96.1179 45.9562 98.0403 44.1761C99.9626 42.3961 101.094 40.5225 101.349 38.4418C101.603 36.3611 98.3015 31.5745 95.39 34.4417Z" fill="#E7A585"/>
<path d="M94.7673 48.246C94.7673 48.246 95.2389 47.164 95.5715 45.9444C95.6292 45.7287 95.6835 45.5096 95.7293 45.2922C95.8922 44.5261 95.9583 43.7703 95.7836 43.2522C95.2763 41.749 98.9716 42.7902 98.9716 42.7902C98.9716 42.7902 98.2556 46.7665 98.9716 48.1084C99.6876 49.4485 94.7673 48.246 94.7673 48.246Z" fill="#E7A585"/>
<path d="M104.133 50.1397C103.551 48.9779 103.117 48.6025 101.992 48.2475C101.362 48.0488 98.5525 47.3167 98.5525 47.3167L95.1761 47.1927C95.1761 47.1927 92.8533 47.58 91.0531 48.205C89.2513 48.8301 86.8912 52.2459 86.8912 52.2459C86.8912 52.2459 90.1471 59.8996 90.7715 62.0958C91.3942 64.2921 90.9802 67.6909 90.9802 67.6909C94.8842 69.8175 101.143 67.4837 101.143 67.4837C100.668 65.7681 100.65 63.7638 100.899 62.3421C100.928 62.174 100.962 62.0143 100.997 61.8648C101.031 61.7273 101.077 61.5319 101.131 61.3128C101.133 61.3026 101.137 61.2924 101.138 61.2839C103.62 61.5387 105.948 61.6423 106.009 61.1429C106.283 58.8975 104.934 51.738 104.133 50.1397ZM102.412 58.8669C102.312 58.8516 102.1 58.8499 101.875 58.8312C102.149 58.0618 102.457 57.3789 102.457 57.3789C102.635 57.8698 103.303 58.9994 102.412 58.8669Z" fill="#EBD9D2"/>
<path d="M96.4301 36.7534C96.4301 36.7534 97.9537 39.5288 98.9022 40.5225C99.8489 41.5161 99.7386 42.306 99.7386 42.306C99.7386 42.306 103.429 37.747 100.797 34.9954C98.1641 32.2437 94.7691 33.3529 93.7765 35.758C92.7839 38.1632 93.147 41.1 93.147 41.1C93.147 41.1 93.1742 38.2804 96.4301 36.7534Z" fill="#D28853"/>
<path d="M97.4361 33.8488C97.4361 33.8488 97.068 31.8174 100.249 31.0105C103.431 30.202 104.861 33.8726 104.469 36.1113C104.077 38.35 101.357 44.0283 102.832 44.7672C104.308 45.5061 104.883 43.9128 104.883 43.9128C104.883 43.9128 104.421 46.7052 102.37 46.0598C100.319 45.4143 100.595 40.8741 100.904 39.0668C101.215 37.2562 97.4361 33.8488 97.4361 33.8488Z" fill="#D28853"/>
<path d="M98.4612 43.7736C98.4493 43.8025 97.6451 45.6556 95.5717 45.9443C95.6294 45.7286 95.6837 45.5095 95.7295 45.2921C95.7295 45.2921 96.8663 45.5214 98.4612 43.7736Z" fill="#A4775F"/>
<path d="M102.413 57.4045C102.413 57.4045 102.26 57.7255 101.844 58.9875C101.42 55.4392 101.642 53.5929 101.642 53.5929C101.688 55.4902 102.413 57.4045 102.413 57.4045Z" fill="#CFBDB7"/>
<path d="M97.9317 33.4226C97.9317 33.4226 100.19 33.8574 101.317 35.6987C101.317 35.6987 101.087 34.0307 99.9643 33.55C98.8394 33.0693 97.9317 33.4226 97.9317 33.4226Z" fill="#EBD9D2"/>
<path d="M101.13 61.3129C101.076 61.532 101.03 61.7273 100.996 61.8649C100.959 62.0144 100.926 62.174 100.898 62.3422C99.4996 61.5812 98.4951 60.985 98.4951 60.985C98.8701 61.07 101.13 61.3129 101.13 61.3129Z" fill="#CFBDB7"/>
<path d="M98.7409 47.366L94.7673 50.6085L95.1762 47.1927C95.1762 47.1927 97.4938 46.6916 98.7409 47.366Z" fill="#E7A585"/>
<path d="M95.9159 50.0583L94.7673 50.6087L98.6696 46.7359L95.9159 50.0583Z" fill="#D5C4BD"/>
<path d="M101.364 61.0326C100.818 63.3019 102.84 68.4094 102.84 68.4094L98.829 69.6647C98.2521 69.8447 97.6447 69.4914 97.5175 68.8986C96.9796 66.4 95.7207 60.2478 95.5714 56.8286C95.3796 52.465 98.5525 47.3167 98.5525 47.3167C104.192 48.2849 102.647 56.8286 102.647 56.8286C102.647 56.8286 102.441 57.3671 102.168 58.2079C102.099 58.4185 102.026 58.6495 101.951 58.8958C101.757 59.526 101.55 60.2597 101.364 61.0326Z" fill="#7099D8"/>
<path d="M94.7776 47.3795L94.8472 47.1927C94.8472 47.1927 91.9594 47.6326 90.4901 48.3664C89.0225 49.1002 86.2111 52.893 86.2111 52.893L89.8861 57.7509C89.8912 61.4843 89.2855 68.1223 89.2855 68.1223L90.9669 69.0922C91.4182 69.3521 91.9849 69.0327 91.9934 68.5113C92.0409 65.9872 92.1546 59.993 92.2139 57.0885C92.2903 53.3551 94.9524 47.315 94.9524 47.315C94.893 47.3371 94.8353 47.3574 94.7776 47.3795Z" fill="#7099D8"/>
<path d="M89.5399 64.8848C89.5399 64.8848 92.3122 64.9935 92.7432 64.8848C93.1742 64.7761 96.05 63.5277 96.2231 62.2945C96.3962 61.0614 89.5399 63.4003 89.5399 63.4003V64.8848Z" fill="#E7A585"/>
<path d="M98.1385 61.0326L86.8912 59.7145L91.9727 63.8522L98.1385 61.0326Z" fill="#B5A5A0"/>
<path d="M91.973 63.8522L98.1387 61.7494V61.0326L91.7643 63.0794L91.973 63.8522Z" fill="#EBD9D2"/>
<path d="M94.8725 58.9638C94.8725 58.9638 93.9427 58.9638 93.4218 58.8585C93.018 58.777 92.017 58.8891 91.7608 59.1167C91.5046 59.3426 90.6936 60.9223 90.5392 61.0174C90.3865 61.1142 90.6172 61.3367 90.887 61.2246C90.887 61.2246 91.1347 61.9159 91.7455 61.656C92.3563 61.3979 92.772 60.8322 93.091 60.7337C93.4116 60.6335 95.2746 60.1324 95.2746 60.1324C95.2746 60.1324 95.351 58.7957 94.8725 58.9638Z" fill="#E7A585"/>
<path d="M95.3885 46.5627L93.2473 49.9564L92.214 50.6087L94.6233 47.2285L95.3885 46.5627Z" fill="#F8E5DD"/>
<path d="M93.247 49.9564L94.7672 50.6087L95.1761 47.1929L95.3882 46.5627L93.247 49.9564Z" fill="#D5C4BD"/>
<path d="M89.8773 63.2986C89.8773 63.2986 89.762 64.7322 89.8773 65.0328C89.8773 65.0328 82.9413 64.3398 82.2949 63.3682C81.6484 62.3967 81.6705 61.2179 81.6705 61.2179L89.8773 63.2986Z" fill="#F09E4A"/>
<path d="M91.9729 63.8522L88.6932 51.6446L76.2209 50.3266L79.6397 61.5642L91.9729 63.8522Z" fill="#EBD9D2"/>
<path d="M98.6696 46.7359L95.9159 50.0583L97.4225 51.4036L99.0497 47.4255L98.6696 46.7359Z" fill="#F8E5DD"/>
<path d="M102.26 57.9259L102.168 58.2079C102.099 58.4185 102.026 58.6495 101.951 58.8958C101.418 59.064 96.812 58.7243 96.812 58.7243C96.812 58.7243 100.667 57.8189 102.26 57.9259Z" fill="#3865A7"/>
<path d="M101.995 58.8059C101.254 58.7499 100.037 58.67 99.0431 58.6666C97.4958 58.6598 94.8473 58.8331 94.8473 58.8331L95.1628 60.4892C95.1628 60.4892 99.8525 61.2518 102.414 61.4319C102.414 61.4319 105.794 61.8208 106.045 61.3164C106.296 60.8119 105.962 57.5694 105.412 54.6495C104.863 51.728 104.298 50.0464 103.626 49.1445C102.954 48.2426 99.4028 47.5394 99.4028 47.5394L102.414 57.408C102.414 57.408 102.847 58.2878 102.823 58.6683C102.817 58.7838 102.737 58.8382 102.628 58.8586C102.552 58.8518 102.386 58.8382 102.157 58.8195L101.995 58.8059Z" fill="#7099D8"/>
</svg>
