<svg width="46" height="33" viewBox="0 0 46 33" fill="none" xmlns="http://www.w3.org/2000/svg">
<path d="M0.0317415 25.3278L7.11826 32.4189L14.2048 25.3278L7.11827 18.2366L0.0317415 25.3278Z" fill="#FE5F5F"/>
<path d="M8.92492 16.4631L16.0115 23.5542L23.0981 16.4631L16.0115 9.37206L8.92492 16.4631Z" fill="#FE5F5F"/>
<path d="M2.6607e-07 7.51047L7.08649 14.6017L14.173 7.51047L7.0865 0.419285L2.6607e-07 7.51047Z" fill="#FE5F5F"/>
<path d="M22.6081 25.3278L29.6946 32.4189L36.7811 25.3278L29.6946 18.2366L22.6081 25.3278Z" fill="#FE5F5F"/>
<path d="M31.5013 16.4631L38.5879 23.5542L45.6745 16.4631L38.5879 9.37206L31.5013 16.4631Z" fill="#FE5F5F"/>
<path d="M22.5762 7.51047L29.6627 14.6017L36.7492 7.51047L29.6627 0.419285L22.5762 7.51047Z" fill="#FE5F5F"/>
</svg>
